<?xml version="1.0" encoding="utf-8"?>
<!-- Generator: Adobe Illustrator 21.0.0, SVG Export Plug-In . SVG Version: 6.00 Build 0)  -->
<svg version="1.1" id="Layer_1" xmlns="http://www.w3.org/2000/svg" xmlns:xlink="http://www.w3.org/1999/xlink" x="0px" y="0px"
	 viewBox="0 0 512 512" xml:space="preserve">
<g>
	<path class="background" d="M0,56.9v398.2C0,486.4,25.6,512,56.9,512h398.2c31.3,0,56.9-25.6,56.9-56.9V56.9C512,25.6,486.4,0,455.1,0
		H56.9C25.6,0,0,25.6,0,56.9z"/>
	<path class="trace" d="M8.5,28.4l85.3,85.3c-5.7,8.5-8.5,18.5-8.5,28.4c0,31.3,25.6,56.9,56.9,56.9s56.9-25.6,56.9-56.9
		s-25.6-56.9-56.9-56.9c-10,0-19.9,2.8-28.4,8.5L28.4,8.5C19.9,12.8,12.8,19.9,8.5,28.4z M142.2,120.9c11.4,0,21.3,10,21.3,21.3
		s-10,21.3-21.3,21.3s-21.3-10-21.3-21.3S130.8,120.9,142.2,120.9z"/>
	<path class="trace" d="M503.5,483.6l-85.3-85.3c5.7-8.5,8.5-18.5,8.5-28.4c0-31.3-25.6-56.9-56.9-56.9s-56.9,25.6-56.9,56.9
		s25.6,56.9,56.9,56.9c10,0,19.9-2.8,28.4-8.5l85.3,85.3C492.1,499.2,499.2,492.1,503.5,483.6z M369.8,391.1
		c-11.4,0-21.3-10-21.3-21.3s10-21.3,21.3-21.3s21.3,10,21.3,21.3S381.2,391.1,369.8,391.1z"/>
	<path class="trace" d="M142.2,426.7c31.3,0,56.9-25.6,56.9-56.9c0-10-2.8-19.9-8.5-28.4l150.8-150.8c8.5,5.7,18.5,8.5,28.4,8.5
		c31.3,0,56.9-25.6,56.9-56.9s-25.6-56.9-56.9-56.9s-56.9,25.6-56.9,56.9c0,10,2.8,19.9,8.5,28.4L170.7,321.4
		c-8.5-5.7-18.5-8.5-28.4-8.5c-31.3,0-56.9,25.6-56.9,56.9S110.9,426.7,142.2,426.7z M369.8,120.9c11.4,0,21.3,10,21.3,21.3
		s-10,21.3-21.3,21.3s-21.3-10-21.3-21.3S358.4,120.9,369.8,120.9z M142.2,348.4c11.4,0,21.3,10,21.3,21.3s-10,21.3-21.3,21.3
		s-21.3-10-21.3-21.3S130.8,348.4,142.2,348.4z"/>
</g>
</svg>
