<?xml version="1.0" encoding="UTF-8" standalone="no"?>
<!DOCTYPE svg PUBLIC "-//W3C//DTD SVG 20010904//EN"
              "http://www.w3.org/TR/2001/REC-SVG-20010904/DTD/svg10.dtd">

<svg xmlns="http://www.w3.org/2000/svg"
     viewBox="0 0 72 72">
  <path id="Imported Path"
        d="M 70.13,34.62
           C 70.13,34.62 62.06,34.62 62.06,34.62M 70.13,41.07
           C 70.13,41.07 62.06,41.07 62.06,41.07M 70.13,28.17
           C 70.13,28.17 62.06,28.17 62.06,28.17M 9.94,34.62
           C 9.94,34.62 1.88,34.62 1.88,34.62M 9.94,41.07
           C 9.94,41.07 1.88,41.07 1.88,41.07M 9.94,28.17
           C 9.94,28.17 1.88,28.17 1.88,28.17M 36.00,61.94
           C 36.00,61.94 36.00,70.10 36.00,70.10M 42.37,61.94
           C 42.37,61.94 42.37,70.10 42.37,70.10M 29.62,61.94
           C 29.62,61.94 29.62,70.10 29.62,70.10M 36.00,1.90
           C 36.00,1.90 36.00,10.06 36.00,10.06M 42.37,1.90
           C 42.37,1.90 42.37,10.06 42.37,10.06M 29.62,1.90
           C 29.62,1.90 29.62,10.06 29.62,10.06M 26.25,55.90
           C 26.25,55.90 26.25,55.90 26.25,55.90
             20.87,55.90 16.51,51.49 16.50,46.04
             16.50,46.04 16.50,25.68 16.50,25.68
             16.51,20.23 20.87,15.82 26.25,15.82
             26.25,15.82 26.25,15.82 26.25,15.82
             26.25,15.82 45.74,15.82 45.74,15.82
             45.74,15.82 45.75,15.82 45.75,15.82
             51.13,15.82 55.49,20.23 55.50,25.68
             55.50,25.68 55.50,46.04 55.50,46.04
             55.49,51.49 51.13,55.90 45.75,55.90
             45.75,55.90 45.74,55.90 45.74,55.90
             45.74,55.90 26.25,55.90 26.25,55.90
             26.25,55.90 26.25,55.90 26.25,55.90 Z" />
</svg>
