<svg xmlns="http://www.w3.org/2000/svg" width="300" height="300" 
    viewBox="0 0 300.000000 300.000000" 
    preserveAspectRatio="xMidYMid " 
    class="svg">
<g transform="translate(0.000000,300.000000) scale(0.100000,-0.100000)">
<path d="M441 2000 c-83 -18 -184 -63 -248 -111 -83 -64 -105 -89 -150 -179
-37 -73 -38 -78 -38 -185 0 -95 3 -117 25 -165 34 -76 70 -127 127 -180 167
-155 394 -225 603 -186 212 40 483 185 689 370 l74 66 46 -43 c177 -165 432
-312 646 -373 85 -24 117 -28 215 -27 97 0 127 4 193 27 246 83 377 242 377
457 0 135 -56 250 -170 351 -165 146 -381 211 -589 179 -212 -33 -436 -156
-689 -379 l-84 -73 -51 46 c-206 182 -426 316 -627 380 -94 30 -266 42 -349
25z m414 -103 c162 -57 375 -193 532 -341 l43 -40 -23 -24 c-32 -36 -209 -176
-272 -217 -188 -120 -359 -189 -522 -210 -28 -4 -87 -1 -130 5 -211 32 -343
151 -372 336 -36 236 143 456 420 514 80 17 246 5 324 -23z m1697 19 c143 -31
253 -111 306 -224 24 -51 27 -69 27 -167 0 -97 -3 -116 -26 -165 -94 -201
-355 -328 -596 -291 -142 22 -312 92 -447 184 -68 46 -185 138 -231 181 l-30
28 55 50 c79 72 226 188 291 231 121 78 318 163 419 180 56 9 169 6 232 -7z"></path>
</g>
<g transform="translate(0.000000,300.000000) scale(0.100000,-0.100000)">
</g>
</svg>
