<?xml version="1.0" encoding="utf-8"?>
<!-- Generator: Adobe Illustrator 25.0.0, SVG Export Plug-In . SVG Version: 6.00 Build 0)  -->
<svg version="1.1" id="Layer_1" xmlns="http://www.w3.org/2000/svg" xmlns:xlink="http://www.w3.org/1999/xlink"
	 viewBox="0 0 100 100" xml:space="preserve">
<g>
	<g>
		<g>
			<g>
				<g>
					<g>
						<g>
							<g>
								<g>
									<g>
										<path class="rest" d="M81.7,19.6H17.5c-0.9,0-1.6,0.7-1.6,1.6v42.2c0,0.9,0.7,1.6,1.6,1.6h64.2c0.9,0,1.6-0.7,1.6-1.6V21.1
											C83.2,20.3,82.5,19.6,81.7,19.6z"/>
										<path class="rest" d="M90.4,77.6L83,64.9H16.5l-6.1,12.7c0,0-1,0.8,3.3,0.8l36.1-0.1l37.3,0.1
											C91.4,78.4,90.4,77.6,90.4,77.6z"/>
									</g>
								</g>
							</g>
						</g>
					</g>
				</g>
				<g>
					<line class="rest" x1="21.2" y1="67.5" x2="26.3" y2="67.5"/>
					<line class="rest" x1="29.5" y1="67.5" x2="34.6" y2="67.5"/>
					<line class="rest" x1="37.8" y1="67.5" x2="43" y2="67.5"/>
					<line class="rest" x1="46.1" y1="67.5" x2="51.3" y2="67.5"/>
					<line class="rest" x1="54.4" y1="67.5" x2="59.6" y2="67.5"/>
					<line class="rest" x1="62.8" y1="67.5" x2="67.9" y2="67.5"/>
					<line class="rest" x1="71.1" y1="67.5" x2="76.2" y2="67.5"/>
				</g>
				<g>
					<line class="rest" x1="21.2" y1="69.6" x2="26.3" y2="69.6"/>
					<line class="rest" x1="29.5" y1="69.6" x2="34.6" y2="69.6"/>
					<line class="rest" x1="37.8" y1="69.6" x2="43" y2="69.6"/>
					<line class="rest" x1="46.1" y1="69.6" x2="51.3" y2="69.6"/>
					<line class="rest" x1="54.4" y1="69.6" x2="59.6" y2="69.6"/>
					<line class="rest" x1="62.8" y1="69.6" x2="67.9" y2="69.6"/>
					<line class="rest" x1="71.1" y1="69.6" x2="76.2" y2="69.6"/>
				</g>
			</g>
		</g>
		<line class="rest" x1="11.5" y1="80.7" x2="88.5" y2="80.7"/>
	</g>
	<polygon class="touchpad" points="50.2,75.3 39.3,75.3 40.8,72.5 50.2,72.5 59.6,72.5 61.1,75.3 	"/>
</g>
</svg>
